<svg xmlns="http://www.w3.org/2000/svg" viewBox="0 0 102.87 57.34"><defs><style>.cls-1{fill:#fff;}.cls-2{fill:#ed2326;}</style></defs><title>Asset 1</title><g id="Layer_2" data-name="Layer 2"><g id="Layer_1-2" data-name="Layer 1"><path class="cls-1" d="M51.43,57.34C23.07,57.34,0,44.48,0,28.67S23.07,0,51.43,0s51.43,12.86,51.43,28.67S79.79,57.34,51.43,57.34Z"/><ellipse class="cls-2" cx="51.43" cy="28.67" rx="49.93" ry="27.17"/><path class="cls-1" d="M51.43,45.06A16.64,16.64,0,1,1,68.07,28.43,16.66,16.66,0,0,1,51.43,45.06Zm0-29.78A13.14,13.14,0,1,0,64.57,28.43,13.15,13.15,0,0,0,51.43,15.29Z"/><path class="cls-1" d="M51.85,1.25,78.7,28.43,51.85,55.6,24.2,28.43Zm0,48.88L73,28.43,51.85,7.21,30.2,28.43Z"/><path class="cls-1" d="M7.62,15.63s6.86,22,30.76,26.73l-4-4S19.84,33.15,9,14.3Z"/><path class="cls-1" d="M63.43,13A46.46,46.46,0,0,1,96.86,40.2L95.09,42S83.78,21,68,17.59Z"/></g></g></svg>